<svg width="29" height="28" viewBox="0 0 29 28" fill="none" xmlns="http://www.w3.org/2000/svg">
<path d="M18.4154 11.4691C17.4351 9.802 15.8446 8.57235 13.9474 8.01483C12.0502 7.45731 9.97924 7.61098 8.1298 8.44649C7.12243 8.90158 6.20507 9.42543 5.44706 10.1629C4.12468 11.4494 4.09671 13.6704 5.48032 14.8908C6.2045 15.5295 6.91022 15.9375 7.2267 16.9768C7.50358 17.8861 7.26674 18.706 7.04334 19.5749C6.55049 21.4919 7.92074 23.3066 9.88368 23.5606C10.8067 23.6801 11.7583 23.6434 12.6969 23.4445C14.6732 23.0257 16.4533 21.9167 17.6973 20.3292C18.9413 18.7418 19.5622 16.7871 19.4413 14.8383L19.2881 13.6277C19.189 12.8447 18.8883 12.1009 18.4154 11.4691Z" fill="white"/>
<ellipse cx="13.771" cy="3.52298" rx="2.7541" ry="2.55738" transform="rotate(4.67804 13.771 3.52298)" fill="white"/>
<ellipse cx="21.3889" cy="6.90958" rx="2.7541" ry="2.55738" transform="rotate(4.67804 21.3889 6.90958)" fill="white"/>
<ellipse cx="24.4367" cy="13.0805" rx="2.7541" ry="2.55738" transform="rotate(4.67804 24.4367 13.0805)" fill="white"/>
<path d="M26.1044 21.1121C26.345 21.1318 26.5602 20.9514 26.5356 20.7113C26.4864 20.231 26.292 19.7685 25.9703 19.3794C25.5519 18.8733 24.948 18.5276 24.2758 18.4093C23.6037 18.291 22.9112 18.4085 22.3328 18.7391C21.7544 19.0696 21.3314 19.5897 21.1459 20.1982C20.9604 20.8067 21.0256 21.4603 21.3289 22.0322C21.6322 22.604 22.1519 23.0533 22.7872 23.2927C23.4224 23.5321 24.1279 23.5447 24.7667 23.3279C25.2552 23.1622 25.678 22.8713 25.9894 22.4928C26.1455 22.303 26.0583 22.0291 25.8375 21.9212C25.4117 21.7131 25.5884 21.0699 26.0608 21.1085L26.1044 21.1121Z" fill="white"/>
</svg>
